<svg width="36" height="48" viewBox="0 0 36 48" fill="none" xmlns="http://www.w3.org/2000/svg">
<path fill-rule="evenodd" clip-rule="evenodd" d="M36 6.98511V41.015C36 44.7738 33.3137 47.8209 30 47.8209H6C2.68629 47.8209 0 44.7738 0 41.015V6.98511C0 3.22627 2.68629 0.179138 6 0.179138H30C33.3137 0.179138 36 3.22627 36 6.98511ZM33 6.98511C33 5.10569 31.6569 3.58212 30 3.58212H6C4.34315 3.58212 3 5.10569 3 6.98511V41.015C3 42.8944 4.34315 44.4179 6 44.4179H30C31.6569 44.4179 33 42.8944 33 41.015V6.98511ZM25.5 13.7911C26.3284 13.7911 27 13.0293 27 12.0896C27 11.1499 26.3284 10.3881 25.5 10.3881H10.5C9.67157 10.3881 9 11.1499 9 12.0896C9 13.0293 9.67157 13.7911 10.5 13.7911H25.5ZM27 20.597C27 21.5368 26.3284 22.2985 25.5 22.2985H10.5C9.67157 22.2985 9 21.5368 9 20.597C9 19.6573 9.67157 18.8956 10.5 18.8956H25.5C26.3284 18.8956 27 19.6573 27 20.597ZM19.5 30.806C20.3284 30.806 21 30.0442 21 29.1045C21 28.1648 20.3284 27.403 19.5 27.403H10.5C9.67157 27.403 9 28.1648 9 29.1045C9 30.0442 9.67157 30.806 10.5 30.806H19.5Z" fill="#979797"/>
</svg>
